<svg xmlns="http://www.w3.org/2000/svg" width="118.667" height="118.667" viewBox="0 0 31.397 31.397"><defs><clipPath id="a" clipPathUnits="userSpaceOnUse"><path d="M205 330.5c0-24.577-19.923-44.5-44.5-44.5S116 305.923 116 330.5s19.923 44.5 44.5 44.5 44.5-19.923 44.5-44.5z" clip-rule="evenodd"/></clipPath></defs><g clip-path="url(#a)" transform="matrix(.35278 0 0 -.35278 -40.922 132.292)"><path d="M88 44.5C88 20.476 68.524 1 44.5 1v-2C69.629-1 90 19.371 90 44.5ZM44.5 1C20.476 1 1 20.476 1 44.5h-2C-1 19.371 19.371-1 44.5-1ZM1 44.5C1 68.524 20.476 88 44.5 88v2C19.371 90-1 69.629-1 44.5ZM44.5 88C68.524 88 88 68.524 88 44.5h2C90 69.629 69.629 90 44.5 90Z" style="fill:#00f;fill-opacity:1;fill-rule:nonzero;stroke:none;stroke-width:.99975;stroke-dasharray:none" transform="translate(116 286)"/></g><path d="M7 .136a7 7 0 1 1 0 14 7 7 0 0 1 0-14Zm0 12a5 5 0 1 0 0-10 5 5 0 0 0 0 10Z" style="fill:#00f;fill-opacity:1;fill-rule:nonzero;stroke:none" transform="matrix(.35278 0 0 -.35278 13.053 15.57)"/><path d="M25.47 8.63a17.16 17.16 0 0 1-24.93 0A2 2 0 0 1 0 7.26V2a2 2 0 0 1 2-2h22a2 2 0 0 1 2 2v5.26a2 2 0 0 1-.53 1.37zM24 2H2v5.27a15.17 15.17 0 0 0 22 0Z" style="fill:#00f;fill-opacity:1;fill-rule:nonzero;stroke:none" transform="matrix(.35278 0 0 -.35278 10.936 21.167)"/></svg>
